<?xml version="1.0" encoding="UTF-8"?><svg id="Warstwa_1" xmlns="http://www.w3.org/2000/svg" viewBox="0 0 440.23 348.52"><defs><style>.cls-1{fill:#1d1d1b;}</style></defs><polygon class="cls-1" points="396.11 341.58 377.04 348.52 377.04 264.24 396.11 257.3 396.11 341.58"/><path class="cls-1" d="M348.82,278.72v55.31H14.28v-55.31h334.54M363.09,264.24H0v84.28h363.09v-84.28h0Z"/><path class="cls-1" d="M46.5,325.84c-4.73,0-8.48-1.66-11.26-4.97-2.78-3.31-4.17-7.97-4.17-13.98s1.39-10.41,4.18-13.86c2.79-3.44,6.54-5.17,11.27-5.17,1.26,0,2.38.08,3.39.25,1,.16,1.96.39,2.88.69.72.25,1.5.58,2.35,1.01.85.43,1.53.79,2.05,1.1v8.71h-.8c-.38-.39-.86-.86-1.44-1.41-.58-.55-1.23-1.08-1.97-1.61-.73-.52-1.54-.97-2.42-1.34-.88-.37-1.8-.55-2.76-.55-1.14,0-2.19.21-3.14.63-.95.42-1.86,1.14-2.72,2.17-.79.93-1.44,2.19-1.94,3.78-.5,1.59-.75,3.46-.75,5.62,0,2.27.26,4.18.78,5.73.52,1.55,1.21,2.79,2.05,3.74.82.92,1.73,1.58,2.74,1.99,1.01.41,2.01.61,3.02.61s2.04-.2,2.98-.6c.95-.4,1.74-.85,2.39-1.34.71-.51,1.33-1.02,1.86-1.55.54-.52,1-.99,1.4-1.4h.72v8.59c-.58.31-1.25.67-2.01,1.07-.76.4-1.54.74-2.35,1.02-.99.34-1.91.6-2.77.79-.86.18-2.05.27-3.55.27Z"/><path class="cls-1" d="M90.69,325.13h-7.91v-16.2h-10.77v16.2h-7.91v-36.54h7.91v13.38h10.77v-13.38h7.91v36.54Z"/><path class="cls-1" d="M125.66,288.59l-10.88,21.28v15.27h-7.91v-14.8l-11.07-21.75h9.01l6.18,13.06,5.95-13.06h8.72Z"/><path class="cls-1" d="M151.8,325.13h-21.03v-36.54h7.91v29.57h13.12v6.97Z"/><path class="cls-1" d="M154.44,325.13l10.64-36.54h8.63l10.64,36.54h-8.15l-1.97-7.46h-9.9l-1.97,7.46h-7.93ZM172.51,311.04l-3.22-12.05-3.22,12.05h6.43Z"/><path class="cls-1" d="M218.88,325.13h-9.65l-8.78-13.4h-2.84v13.4h-7.87v-36.54h12.67c1.75,0,3.27.13,4.57.38,1.3.25,2.5.78,3.6,1.58,1.13.83,2.02,1.89,2.69,3.18.66,1.29.99,2.92.99,4.9,0,2.8-.54,5.07-1.63,6.81-1.09,1.74-2.54,3.13-4.36,4.16l10.6,15.54ZM206.14,299.78c0-.92-.15-1.71-.45-2.37-.3-.66-.81-1.17-1.51-1.53-.49-.25-1.04-.4-1.65-.47-.61-.06-1.36-.1-2.26-.1h-2.64v9.84h2.26c1.1,0,2.03-.08,2.8-.23.77-.16,1.42-.49,1.96-.99.51-.46.89-1.01,1.13-1.64.25-.64.37-1.47.37-2.5Z"/><path class="cls-1" d="M223.46,325.13v-36.54h21.31v6.97h-13.44v6.41h12.38v6.97h-12.38v9.23h13.44v6.97h-21.31Z"/><path class="cls-1" d="M265.96,325.84c-4.73,0-8.48-1.66-11.26-4.97-2.78-3.31-4.17-7.97-4.17-13.98s1.39-10.41,4.18-13.86c2.79-3.44,6.54-5.17,11.27-5.17,1.26,0,2.38.08,3.39.25,1,.16,1.96.39,2.88.69.72.25,1.5.58,2.35,1.01.85.43,1.53.79,2.05,1.1v8.71h-.8c-.38-.39-.86-.86-1.44-1.41-.58-.55-1.23-1.08-1.97-1.61-.73-.52-1.54-.97-2.42-1.34-.88-.37-1.8-.55-2.76-.55-1.14,0-2.19.21-3.14.63-.95.42-1.86,1.14-2.72,2.17-.79.93-1.44,2.19-1.94,3.78-.5,1.59-.75,3.46-.75,5.62,0,2.27.26,4.18.78,5.73.52,1.55,1.21,2.79,2.05,3.74.82.92,1.73,1.58,2.74,1.99,1.01.41,2.01.61,3.02.61s2.04-.2,2.98-.6c.95-.4,1.74-.85,2.39-1.34.71-.51,1.33-1.02,1.86-1.55.54-.52,1-.99,1.4-1.4h.72v8.59c-.58.31-1.25.67-2.01,1.07-.76.4-1.54.74-2.35,1.02-.99.34-1.91.6-2.77.79-.86.18-2.05.27-3.55.27Z"/><path class="cls-1" d="M311.17,325.13h-9.56l-8.59-14.85-1.54,2.5v12.35h-7.91v-36.54h7.91v16.22l10.07-16.22h9.16l-11.24,16.96,11.7,19.59Z"/><path class="cls-1" d="M331.68,325.13h-16.97v-6.38h4.53v-23.78h-4.53v-6.38h16.97v6.38h-4.53v23.78h4.53v6.38Z"/><polygon class="cls-1" points="289.06 102.16 289.06 45.86 258.33 45.86 258.33 73.89 200.94 21.11 177.99 0 155.04 21.11 32.29 134.01 78.18 134.01 177.99 42.21 394.98 241.8 439.67 241.8 440.23 241.2 289.06 102.16"/><path class="cls-1" d="M276.97,187.85c-.2-1.44,8.09,2.61,8.73.35l-11.12-9.21s9.36-.2,5.2-2.33c-1.28-.66-6.95-2.6-6.95-2.6l5.41-2.4c-3.46-2.88-6.77-6.47-5.47-7.49,2.19-1.71,12.1,3.91,13.2,1.62,1.21-2.53-23.21-12.57-27.71-13.65-1.55-6.05,18.51.25,18.28-3.92-.17-2.98-9.29-4.29-16.25-5.67-7.68-.75-13.08-.78-14.79-2.16-1.72-1.38,13.38-4.97,8.27-6.89-5.11-1.93-11.58.73-21.53.62-8.17-.09-11.61-.22-14.01-.22-4.15,0,13.73-5.44,10.44-8.65-2.44-2.38-44.68,7.13-45.55,6.62-4.07-2.39,11.91-10.84,11.83-12.75-.14-3.44-28.33,9.6-28.33,9.6-.02.02-3.54,2.48-3.54,2.48,0,0-.1.08-.28.22.08-.12.15-.23.23-.34,1.74-2.67,1.74-3.14,1.58-3.4-.05-.08-.16-.2-.41-.17h0c-1.06.15-6.47,3.47-12.21,8.15-.08.07-.17.14-.26.21,2.82-6.28,14.65-21.8,13.99-22.1-5.08-2.3-26.4,20.53-30.61,26.34-3.71,5.13-4.42,9.19-7.15,10.81-.52-2.3-.9-4.16-.91-4.21l-.14-.67-.28.63c-.07.15-.65,1.46-1.43,3.3-1.43-3.93-1.35-14.24-3.3-14.46-4.75-.52-6.38,20.16-7.87,29.96-.1-.57-.16-.92-.16-.93l-.18-1.11-.26,1.09s-.64,2.76-.91,5.96c-2.12-.44-2.72-17.36-5.96-16.78-2.25.41-2.02,9.93-1.81,16.82-.51-1.26-.84-2.09-.85-2.11l-.37-.94-.06,1.01c-.01.22-.21,3.85.04,6.93-2.26-4.94-6.83-17.09-7.74-17.09-1.2,0-1.55,11.04-1.11,12.18.96,2.46,4.49,8.39,5.55,10.65.94,2.01-2.28.74-4.23-1.18-1.95-1.92-7.28-6.67-8.03-4.57-.75,2.1,10.94,10.82,10.14,14.93-.79,4.12-10.01,10.97-16.83,12.7-13.27,3.38-20.31,3.24-20.31,3.24-.06,0-.11,0-.17-.02-1.71-1.25-2.37-2.45-2.38-2.46l-.2-.37-1.24,2.38c-8.63-1.34-15.04-4.39-16.16-3.4-3.64,3.19.95,8.56.95,8.56l11.51,4.22c4.01,2.43,23.36,18.77,50.92,19.72,5.67.2,19.14,1.43,22.2.81.86-.17-9.67,6.04-7.45,8.4,2.22,2.36,3.33-.08,5.12.52,1.8.59.45,4.82,1.84,4.82s32.76-.93,35.17-.93c2.03-.43,3.95-1.6,7.23-5.64.55.11,10.09,1.66,13.2,2.03,6.87.8,17.17,1.17,20.52,1.18,1.35-.33,2.31-1.84,5.88-1.32,4.38.92,3.8,1.71,5.08,4.19,1.57.08,14.73.27,16.54.27,5.76,0,22.64,1.39,22.92-2.43,3.6-.75,7.48-2.31,7.12-6.03-.23-2.35-4.98-2.28-4.51-5.18,3.95.06,12.48-1.75,16.25-5.94l2.26-1.1,2.08-.02c.9-2.1-.37-4.15-.52-8.02.81-1.15,4.49,2.37,5.52.04l-3.89-6.33s6.23,1.93,6.69.89c.47-1.04-5.04-5.33-5.06-5.96-.01-.63,8.08,1.08,8.37,0,.73-2.73-10.65-8.63-8.73-11.22,1.92-2.6,9.71,2.44,10.38.56,1.07-3.01-11.27-9.24-11.48-10.67ZM274.48,195.32c-1.21,0-2.06-.87-3.28-.87-.99,0-1.76.15-1.98.7-.75,1.85-.75,2.78.5,4.86,1.24,2.08,2.49,4.17,2.49,4.17l-5.22,1.62s.99,3.09,2.73,3.63c1.74.54-5.47,1.47-5.47,1.47l6.71,4.86s-1.88-.72-3.72-.72c-.92,0-1.83.18-2.5.72-1.99,1.62-2.49.46-1,3.24,1.49,2.78,4.72,3.24,1,7.17-3.73,3.94-8.7,4.86-12.18,5.56-3.48.7-8.22.64-8.95,1.85-2.35,3.9,5.42,3.24,4.89,6.52-.29,1.81-14.01,3.54-25.13,3.54-1.61,0-3.16-.03-4.61-.11-11.89-.63-13.67-3.24-16.9-3.24s-13.67-.23-19.63-.93c-5.38-.63-11.57-2.38-13.82-2.38-.24,0-.44.02-.59.07-1.49.46-2.49.69-3.23,2.08-.74,1.39,1.46,2.73-6.21,2.31-4.14,0-7.83.13-11.31.13-1.74,0-8.9.65-11,.65-1.22,0-3.64.73-4.34.21-3.92-2.95-6.75-.35-6.75-1.74s7.39-6.36,7.73-6.92c1.17-1.96-1.9-1.83-1.9-1.83.2,0-1.27.03-4.43.03-3.52,0-8.28-.05-13.49-.24-13.63-.49-34.55-8.56-38.52-11.34-3.98-2.78-18.64-11.66-18.64-11.66l2.49-4.78s2.94,5.46,12.89,5.46c3.52,0,11.64-1.04,15.66-2.49,15.41-5.56,17.22-9.1,19.41-12.92,1.82-4.74-8.53-9.85-7.08-10.29,1.45-.44,5.84,3.58,7.08,3.58s2.49-.7,1.49-2.08c-.99-1.39-2.03-3.81-3.23-6.25-1.2-2.44-.75-10.42-.75-10.42,0,0,5.74,14.59,7.23,15.28.96.45,1.2,1.22,3,.33,1.23-.66-.2-2.78-1.07-7.62-.87-4.84.79-11.92.79-11.92,0,0,1.58,9.85,3.57,10.54.46.16,2.23,1.3,2.97,0,1.67-2.91.17-8.46.92-12.86.75-4.4,5.71-15.51,5.71-15.51,0,0,2.24,10.88,3.23,12.73.92,1.73,1.13,3.74,2.43,3.74q1.31.15,5.94-11.58c4.16-10.56,23.76-23.64,25.8-23.92,2.04-.28-10.67,15.44-12.08,19.24-1.35,3.64,3.36,2.71,5.46,1.01,1.08-2.07,11.23-8.62,15.7-10.24,3.84-1.39,15.93-5.96,18.48-5.96.42,0,.58.12.41.4-.99,1.62-10.7,7.72-11.68,8.56-1.85,1.59-1.49,3.01-.25,3.47.06.02.14.03.25.03,2.04,0,12.06-4.1,17.74-5.2,4.83-.94,17.44-1.67,22.72-1.67,1.24,0,2.07.04,2.31.13,1.23.47-2.25,2.08-4.24,2.55-1.99.47-8.69,4.15-8.44,5.08.07.26.49.36,1.16.36,1.71,0,5.05-.64,8.27-.8,1.2-.06,3.35-.09,5.9-.09,6.96,0,15.89-.12,16.8.22,1.24.46,2.42.35.91,1.73-2.49,1.39-6.21,2.08-6.21,3.24s1,2.08,2.24,2.31c1.24.23,11.69.2,14.17.93,3.5,1.03,9.46,3.54,8.95,4.86s-9.52-.8-11.78-.8c-.19,0-4.17.63-3.18,3.17.99,2.55,10.14,3.13,14.81,5.45,4.68,2.31,7.59,3.75,8.34,4.91.75,1.16-7.7,3.47-7.7,3.47,0,0-1.49,1.16-.25,3.01,1.24,1.85,9.44,6.94,9.44,6.94,0,0-.81-.23-1.68-.23s-1.8.23-2.05,1.16c-.5,1.85-.99,3.24,1.24,5.09,2.24,1.85,7.47,1.53,7.21,3.7-.09.73-1.6,1.55-2.69,1.55Z"/><path class="cls-1" d="M128.21,199.02c0-2.33-1.98-4.22-4.43-4.22s-4.43,1.89-4.43,4.22,1.98,4.22,4.43,4.22,4.43-1.89,4.43-4.22Z"/><path class="cls-1" d="M134.01,182.01h7.69l-3.84,19.48c-.22,1.13-.48,2.14-.78,3-.29.87-.72,1.6-1.28,2.2-.54.58-1.28,1.03-2.23,1.35-.95.31-2.17.47-3.67.47-1.03,0-2.01-.13-2.94-.38-.94-.25-1.72-.48-2.34-.7h-.27l-.84,4.24c.84.18,1.91.33,3.19.46,1.29.13,2.32.19,3.1.19,3.27,0,6.04-.79,8.29-2.38,2.26-1.58,3.68-3.84,4.25-6.77l4.87-24.7h-12.53l-.7,3.54Z"/><path class="cls-1" d="M172.73,188.89c-.79-.95-1.79-1.66-3-2.11-1.21-.45-2.67-.67-4.36-.67-3.76,0-7.04,1.21-9.85,3.62-2.8,2.41-4.61,5.66-5.41,9.74-.82,4.14-.25,7.33,1.71,9.58,1.96,2.25,5.11,3.37,9.46,3.37,1.11,0,2.03-.06,2.78-.18.75-.12,1.59-.29,2.53-.52.67-.17,1.43-.39,2.29-.68.85-.29,1.57-.53,2.15-.73l.91-4.59h-.27c-.43.28-.96.59-1.6.91-.63.32-1.4.65-2.3,1-.85.33-1.78.6-2.79.81-1.01.21-2.02.31-3.03.31-2.82,0-4.87-.77-6.16-2.31-1.29-1.54-1.65-3.76-1.08-6.68h18.9l.45-2.29c.39-2,.47-3.69.22-5.07-.25-1.38-.77-2.55-1.55-3.51ZM169.78,196.54h-14.43c.31-1.06.72-1.99,1.24-2.79.51-.8,1.18-1.53,1.99-2.19.83-.64,1.7-1.13,2.62-1.47.92-.33,1.99-.5,3.21-.5s2.24.17,3.02.49c.77.33,1.37.81,1.78,1.44.38.57.61,1.26.71,2.08.1.82.05,1.8-.14,2.94Z"/><polygon class="cls-1" points="180.7 190.28 194.37 190.28 176.47 208.73 175.85 211.84 195.91 211.84 196.6 208.32 182 208.32 199.99 189.81 200.58 186.81 181.38 186.81 180.7 190.28"/><polygon class="cls-1" points="212.84 205.34 209.04 186.81 204.09 186.81 209.3 210.63 202.36 221.08 207.26 221.08 228.71 186.81 223.92 186.81 212.84 205.34"/><polygon class="cls-1" points="236.79 197.38 240.82 176.97 236.23 176.97 229.35 211.84 233.94 211.84 236 201.38 238.13 199.76 245.93 211.84 251.96 211.84 242.11 197.27 255.39 186.81 249.67 186.81 236.79 197.38"/><polygon class="cls-1" points="195.15 177.79 190.61 177.79 189.63 182.46 194.17 182.46 195.15 177.79"/></svg>